<?xml version="1.0" encoding="utf-8"?>
<!DOCTYPE svg PUBLIC "-//W3C//DTD SVG 1.1//EN" "http://www.w3.org/Graphics/SVG/1.1/DTD/svg11.dtd">
<svg version="1.1" xmlns="http://www.w3.org/2000/svg" xmlns:xlink="http://www.w3.org/1999/xlink" x="0px" y="0px" viewBox="0 0 256 256" enable-background="new 0 0 256 256" xml:space="preserve">
<g><g><g><path fill="#4d4d4d" d="M120.1,25.7v15.7h7.9h7.9V25.7V10H128h-7.9V25.7z"/><path fill="#4d4d4d" d="M44.5,44.6L39,50.1l11,11C56,67,61.1,72,61.4,72s2.9-2.5,5.6-5.5l5.1-5.5l-11-11l-11-11L44.5,44.6z"/><path fill="#4d4d4d" d="M195,50c-6,6-10.9,11.2-10.9,11.4C184,62,194,72,194.6,72c0.3,0,5.4-4.9,11.5-11L217,50.1l-5.6-5.6l-5.5-5.5L195,50z"/><path fill="#4d4d4d" d="M121.4,57.5c-18.8,2.7-31.3,8.7-43.3,20.6c-18,18-24.8,42.9-18.4,67.8c4.9,19.4,18.9,36.5,37,45.4c6,2.9,10.7,4.5,17.6,6c7.4,1.6,20.1,1.6,27.5,0c28.6-6.1,49.5-27,55.6-55.6c1.6-7.4,1.6-20.2,0-27.5c-1.4-6.6-3-11.4-5.7-17c-9.6-19.9-27.7-34-49.7-38.6C137.3,57.7,124.9,57,121.4,57.5z M141.4,74.6c15.7,4,28.6,14.5,35.8,29.1c3.8,7.7,5.3,13.6,5.7,21.9c0.8,19.1-8.2,37.2-24,48c-12.5,8.6-29.6,11.6-44.4,7.8c-6.6-1.7-15.5-6.1-20.8-10.4c-4.1-3.3-8.5-8-11.4-12.2c-2.7-3.8-6.4-12.2-7.8-17.4c-1.2-4.3-1.3-5.7-1.3-13.4c0-7.8,0.1-9.1,1.3-13.5c5.4-20.2,21.8-36,41.6-40.3c5.6-1.2,6.1-1.2,13.5-1C135.1,73.3,137.7,73.6,141.4,74.6z"/><path fill="#4d4d4d" d="M10,128v7.9h15.7h15.7V128v-7.9H25.7H10V128z"/><path fill="#4d4d4d" d="M214.5,128v7.9h15.7H246V128v-7.9h-15.7h-15.7L214.5,128L214.5,128z"/><path fill="#4d4d4d" d="M49.9,195L39,205.9l5.6,5.6l5.5,5.5l11-11c6-6,10.9-11.2,10.9-11.4C72,194,62,184,61.4,184C61.1,184,56,189,49.9,195z"/><path fill="#4d4d4d" d="M188.8,189.4l-5.3,5.3l11.2,11.2l11.2,11.2l5.6-5.6l5.5-5.5l-11-11c-6-6-11.2-10.9-11.4-10.9C194.3,184,191.7,186.4,188.8,189.4z"/><path fill="#4d4d4d" d="M120.1,230.3V246h7.9h7.9v-15.7v-15.7H128h-7.9V230.3z"/></g></g></g>
</svg>