<?xml version="1.0" encoding="utf-8"?>
<!DOCTYPE svg PUBLIC "-//W3C//DTD SVG 1.1//EN" "http://www.w3.org/Graphics/SVG/1.1/DTD/svg11.dtd">
<svg version="1.1" xmlns="http://www.w3.org/2000/svg" xmlns:xlink="http://www.w3.org/1999/xlink" x="0px" y="0px" viewBox="0 0 256 256" enable-background="new 0 0 256 256" xml:space="preserve">
<g><g><path fill="#4d4d4d" d="M128,10C62.8,10,10,62.8,10,128c0,65.2,52.8,118,118,118c65.2,0,118-52.8,118-118C246,62.8,193.2,10,128,10z M128,29.7c54.3,0,98.3,44,98.3,98.3c0,0-14.4-9.8-49.2-9.8c-29.3,0-49.2,9.8-49.2,9.8s-29.7,9.8-49.2,9.8c-34.4,0-49.2-9.8-49.2-9.8C29.7,73.7,73.7,29.7,128,29.7z"/></g></g>
</svg>