<?xml version="1.0" encoding="UTF-8"?>
<!DOCTYPE svg PUBLIC "-//W3C//DTD SVG 1.1//EN" "http://www.w3.org/Graphics/SVG/1.1/DTD/svg11.dtd">
<svg xmlns="http://www.w3.org/2000/svg" version="1.1" width="40px" height="40px" viewBox="0 0 512 512" style="shape-rendering:geometricPrecision; text-rendering:geometricPrecision; image-rendering:optimizeQuality; fill-rule:evenodd; clip-rule:evenodd" xmlns:xlink="http://www.w3.org/1999/xlink">
<g><path style="opacity:1" fill="#99a5ac" d="M 73.5,-0.5 C 86.8333,-0.5 100.167,-0.5 113.5,-0.5C 127.456,6.7812 131.29,17.7812 125,32.5C 121.635,37.1864 117.135,40.3531 111.5,42C 101.5,42.3333 91.5,42.6667 81.5,43C 73.5062,44.9937 68.0062,49.827 65,57.5C 63.8108,68.7916 63.1441,80.125 63,91.5C 58.0982,103.206 49.2649,108.039 36.5,106C 28.6667,103.5 23.5,98.3333 21,90.5C 20.3333,78.1667 20.3333,65.8333 21,53.5C 27.2349,24.4331 44.7349,6.43311 73.5,-0.5 Z"/></g>
<g><path style="opacity:1" fill="#99a5ac" d="M 184.5,-0.5 C 201.167,-0.5 217.833,-0.5 234.5,-0.5C 234.5,13.8333 234.5,28.1667 234.5,42.5C 218.163,42.6666 201.83,42.4999 185.5,42C 170.3,35.0704 166.134,23.9037 173,8.5C 176.161,4.49052 179.994,1.49052 184.5,-0.5 Z"/></g>
<g><path style="opacity:0.985" fill="#b0bdc5" d="M 234.5,-0.5 C 250.833,-0.5 267.167,-0.5 283.5,-0.5C 296.34,5.52505 300.84,15.5251 297,29.5C 294.014,35.82 289.181,39.9867 282.5,42C 266.503,42.4999 250.503,42.6666 234.5,42.5C 234.5,28.1667 234.5,13.8333 234.5,-0.5 Z"/></g>
<g><path style="opacity:0.984" fill="#b0bdc5" d="M 355.5,-0.5 C 368.833,-0.5 382.167,-0.5 395.5,-0.5C 423.152,6.31934 440.319,23.6527 447,51.5C 447.667,64.8333 447.667,78.1667 447,91.5C 442.098,103.206 433.265,108.039 420.5,106C 413.819,103.987 408.986,99.82 406,93.5C 404.735,82.5717 404.068,71.5717 404,60.5C 402.167,50.6667 396.333,44.8333 386.5,43C 376.5,42.6667 366.5,42.3333 356.5,42C 342.731,36.6273 337.897,26.794 342,12.5C 344.73,6.23758 349.23,1.90425 355.5,-0.5 Z"/></g>
<g><path style="opacity:0.981" fill="#b0bdc5" d="M 420.5,148.5 C 433.253,146.951 442.087,151.951 447,163.5C 447.667,182.167 447.667,200.833 447,219.5C 442.098,231.206 433.265,236.039 420.5,234C 412.667,231.5 407.5,226.333 405,218.5C 404.333,200.5 404.333,182.5 405,164.5C 407.685,156.65 412.852,151.316 420.5,148.5 Z"/></g>
<g><path style="opacity:1" fill="#99a5ac" d="M 36.5,148.5 C 49.2532,146.951 58.0865,151.951 63,163.5C 63.6667,196.5 63.6667,229.5 63,262.5C 55.0757,277.473 43.5757,280.973 28.5,273C 25.1166,269.731 22.6166,265.897 21,261.5C 20.3333,229.167 20.3333,196.833 21,164.5C 23.685,156.65 28.8517,151.316 36.5,148.5 Z"/></g>
<g><path style="opacity:0.981" fill="#6a87ff" d="M 511.5,401.5 C 511.5,404.833 511.5,408.167 511.5,411.5C 508.993,417.094 504.66,420.26 498.5,421C 462.168,421.5 425.835,421.667 389.5,421.5C 357.212,345.591 324.379,269.924 291,194.5C 290.329,193.748 289.496,193.414 288.5,193.5C 294.111,190.775 299.777,190.941 305.5,194C 374.757,262.756 443.423,331.923 511.5,401.5 Z"/></g>
<g><path style="opacity:1" fill="#5372F0" d="M 288.5,193.5 C 289.496,193.414 290.329,193.748 291,194.5C 324.379,269.924 357.212,345.591 389.5,421.5C 363.839,447.995 338.339,474.661 313,501.5C 309.565,505.445 305.732,508.778 301.5,511.5C 297.833,511.5 294.167,511.5 290.5,511.5C 286.249,509.03 283.416,505.364 282,500.5C 281.333,401.167 281.333,301.833 282,202.5C 282.735,198.326 284.902,195.326 288.5,193.5 Z"/></g>
<g><path style="opacity:1" fill="#99a5ac" d="M 35.5,319.5 C 48.3559,317.177 57.5226,321.844 63,333.5C 63.1678,345.203 63.8345,356.87 65,368.5C 68.37,377.536 74.87,382.369 84.5,383C 94.1667,383.333 103.833,383.667 113.5,384C 126.597,390.375 130.764,400.541 126,414.5C 122.837,420.344 118.004,424.177 111.5,426C 97.7858,426.906 84.1192,426.573 70.5,425C 35.4819,414.164 18.8152,390.331 20.5,353.5C 20.3896,346.424 20.8896,339.424 22,332.5C 24.7302,326.238 29.2302,321.904 35.5,319.5 Z"/></g>
<g><path style="opacity:1" fill="#99a5ac" d="M 234.5,383.5 C 234.5,397.833 234.5,412.167 234.5,426.5C 217.097,426.958 199.764,426.458 182.5,425C 169.799,417.039 166.632,406.206 173,392.5C 175.989,388.509 179.822,385.676 184.5,384C 201.163,383.5 217.83,383.333 234.5,383.5 Z"/></g>
<g><path style="opacity:0.973" fill="#b0bec5" d="M 234.5,383.5 C 247.828,384.162 254.828,391.162 255.5,404.5C 255.28,418.256 248.28,425.589 234.5,426.5C 234.5,412.167 234.5,397.833 234.5,383.5 Z"/></g>
</svg>
