<?xml version="1.0" encoding="utf-8"?>
<!DOCTYPE svg PUBLIC "-//W3C//DTD SVG 1.1//EN" "http://www.w3.org/Graphics/SVG/1.1/DTD/svg11.dtd">
<svg version="1.1" xmlns="http://www.w3.org/2000/svg" xmlns:xlink="http://www.w3.org/1999/xlink" x="0px" y="0px" viewBox="0 0 256 256" enable-background="new 0 0 256 256" xml:space="preserve">
<g><g><g><path fill="#4d4d4d" d="M219.4,151.8c0.7-2.2,1.5-6.3,2.2-12.2h-82v12.2H219.4z M201.7,187.3c4.4-6.3,7.2-10.3,8.3-12.2h-70.4v12.2H201.7z M139.6,221.6c11.8-1.5,23.3-5.2,34.3-11.1h-34.3V221.6z M139.6,104.2v12.2h82c-0.7-5.9-1.5-10-2.2-12.2H139.6z M139.6,68.7v12.2H210c-1.1-1.9-3.9-5.9-8.3-12.2H139.6z M139.6,34.4v11.1H174C162.9,39.5,151.5,35.9,139.6,34.4z M116.4,221.6V34.4c-23.3,3-42.9,13.3-59,31C41.3,83.1,33.3,104,33.3,128s8,44.9,24.1,62.6C73.4,208.3,93.1,218.7,116.4,221.6z M128,10c32.5,0,60.3,11.5,83.4,34.6S246,95.5,246,128c0,32.5-11.5,60.3-34.6,83.4C188.3,234.4,160.5,246,128,246c-32.5,0-60.3-11.5-83.4-34.6C21.6,188.3,10,160.5,10,128c0-32.5,11.5-60.3,34.6-83.4C67.7,21.6,95.5,10,128,10z"/></g></g></g>
</svg>